<svg xmlns="http://www.w3.org/2000/svg" width="32" height="32" fill="none" viewBox="0 0 32 32"><path fill="none" d="M0 0h32v32H0z"/><path fill="#fff" d="M16 2C8.266 2 2 8.266 2 16s6.266 14 14 14 14-6.266 14-14S23.734 2 16 2m-5.312 20.118a.97.97 0 0 1-.842.478.93.93 0 0 1-.491-.135.97.97 0 0 1-.35-1.325l.956-1.59a.55.55 0 0 1 .47-.268h.142c.693 0 1.178.417 1.32.82zm8.09-3.125L12.52 19H8.36a.966.966 0 0 1-.969-1.01c.02-.524.478-.922 1-.922h3.015l3.575-6.084-1.158-1.972c-.26-.45-.145-1.042.302-1.325a.973.973 0 0 1 1.367.324l.619 1.057h.006l.62-1.057a.974.974 0 0 1 1.363-.323c.444.282.559.875.296 1.326l-1.157 1.972-1.125 1.918-2.443 4.166v.007h3.6c.451 0 1.017.242 1.246.632l.02.041c.202.343.316.579.316.922a.9.9 0 0 1-.073.323zm4.86.007h-1.695v.007l1.239 2.107a.99.99 0 0 1-.323 1.345.97.97 0 0 1-.989.015 1 1 0 0 1-.358-.349l-1.83-3.116-1.138-1.938-1.467-2.509a2.4 2.4 0 0 1-.04-2.374c.29-.512.511-.647.511-.647l3.265 5.522h2.806c.525 0 .976.403 1 .921A.98.98 0 0 1 23.64 19z"/></svg>